<svg xmlns="http://www.w3.org/2000/svg" direction="ltr" width="535.93" height="457.30" viewBox="372.64 -188.1328125 535.93 457.30" stroke-linecap="round" stroke-linejoin="round" style="background-color: transparent;"><defs><!--def: tldraw:font:pattern--><mask id="hash_pattern_mask">
							<rect x="0" y="0" width="8" height="8" fill="white"/>
							<g strokelinecap="round" stroke="black">
								<line x1="0.66" y1="2" x2="2" y2="0.66"/>
								<line x1="3.33" y1="4.66" x2="4.66" y2="3.33"/>
								<line x1="6" y1="7.33" x2="7.33" y2="6"/>
							</g>
						</mask><pattern id="hash_pattern" width="8" height="8" patternUnits="userSpaceOnUse">
							<rect x="0" y="0" width="8" height="8" fill="#fcfffe" mask="url(#hash_pattern_mask)"/>
						</pattern></defs><g transform="matrix(1, 0, 0, 1, 589.64, -156.1328)" opacity="1"><path d="M0,47.896484375a47.896484375,47.896484375,0,1,1,95.79296875,0a47.896484375,47.896484375,0,1,1,-95.79296875,0" stroke-width="3.5" width="95.79" height="95.79" fill="none" stroke="#1d1d1d"/></g><g transform="matrix(1, 0, 0, 1, 660.12, -67.4727)" opacity="1"><g><g mask="url(#shape_j35uvNos0GctD405UevDx_clip)"><rect x="-100" y="-100" width="239.02" height="256.53" fill="transparent" stroke="none"/><path d="M5.133523021351493,1.4074784030655252L44.15637925735291,57.944119737988615" fill="none" stroke="#1d1d1d" stroke-width="3.5" stroke-dasharray="none" stroke-dashoffset="none"/></g></g></g><g transform="matrix(1, 0, 0, 1, 605.15, -69.0938)" opacity="1"><g><g mask="url(#shape_L1j7QTOGTzto3tljhl3NU_clip)"><rect x="-100" y="-100" width="242.55" height="258.97" fill="transparent" stroke="none"/><path d="M4.61328125,-0.40234375L-37.93856686681795,58.57336581951549" fill="none" stroke="#1d1d1d" stroke-width="3.5" stroke-dasharray="none" stroke-dashoffset="none"/></g></g></g><g transform="matrix(1, 0, 0, 1, 678.66, -13.793)" opacity="1"><path d="M0,47.896484375a47.896484375,47.896484375,0,1,1,95.79296875,0a47.896484375,47.896484375,0,1,1,-95.79296875,0" stroke-width="3.5" width="95.79" height="95.79" fill="none" stroke="#1d1d1d"/></g><g transform="matrix(1, 0, 0, 1, 498.46, -13.793)" opacity="1"><path d="M0,47.896484375a47.896484375,47.896484375,0,1,1,95.79296875,0a47.896484375,47.896484375,0,1,1,-95.79296875,0" stroke-width="3.5" width="95.79" height="95.79" fill="none" stroke="#1d1d1d"/></g><g transform="matrix(1, 0, 0, 1, 524.92, 76.91)" opacity="1"><g><g mask="url(#shape_CYQAPxImfgKKr_fTAdmTa_clip)"><rect x="-100" y="-100" width="253.29" height="269.05" fill="transparent" stroke="none"/><path d="M-0.05079275922037141,-0.670800707052635L-53.34924898214285,68.38634088027493" fill="none" stroke="#1d1d1d" stroke-width="3.5" stroke-dasharray="none" stroke-dashoffset="none"/></g></g></g><g transform="matrix(1, 0, 0, 1, 404.64, 141.38)" opacity="1"><g><g><path d="M0,47.896484375a47.896484375,47.896484375,0,1,1,95.79296875,0a47.896484375,47.896484375,0,1,1,-95.79296875,0" fill="#65cb78"/><path d="M0,47.896484375a47.896484375,47.896484375,0,1,1,95.79296875,0a47.896484375,47.896484375,0,1,1,-95.79296875,0" fill="url(#hash_pattern)"/></g><path d="M0,47.896484375a47.896484375,47.896484375,0,1,1,95.79296875,0a47.896484375,47.896484375,0,1,1,-95.79296875,0" stroke-width="3.5" width="95.79" height="95.79" fill="none" stroke="#40c057"/></g></g><g transform="matrix(1, 0, 0, 1, 588.22, 141.38)" opacity="1"><path d="M0,47.896484375a47.896484375,47.896484375,0,1,1,95.79296875,0a47.896484375,47.896484375,0,1,1,-95.79296875,0" stroke-width="3.5" width="95.79" height="95.79" fill="none" stroke="#1d1d1d"/></g><g transform="matrix(1, 0, 0, 1, 568.13, 71.84)" opacity="1"><g><g mask="url(#shape_BZlWq0t0KRLSd3kRFjytu_clip)"><rect x="-100" y="-100" width="245.61" height="271.67" fill="transparent" stroke="none"/><path d="M1.875844091095587,2.947755000293057L47.48970566631385,74.62668033277885" fill="none" stroke="#1d1d1d" stroke-width="3.5" stroke-dasharray="none" stroke-dashoffset="none"/></g></g></g><g transform="matrix(1, 0, 0, 1, 780.78, 141.38)" opacity="1"><g><g><path d="M0,47.896484375a47.896484375,47.896484375,0,1,1,95.79296875,0a47.896484375,47.896484375,0,1,1,-95.79296875,0" fill="#65cb78"/><path d="M0,47.896484375a47.896484375,47.896484375,0,1,1,95.79296875,0a47.896484375,47.896484375,0,1,1,-95.79296875,0" fill="url(#hash_pattern)"/></g><path d="M0,47.896484375a47.896484375,47.896484375,0,1,1,95.79296875,0a47.896484375,47.896484375,0,1,1,-95.79296875,0" stroke-width="3.5" width="95.79" height="95.79" fill="none" stroke="#40c057"/></g></g><g transform="matrix(1, 0, 0, 1, 746.51, 74.65)" opacity="1"><g><g mask="url(#shape_jICwMHSYtRkp9FrlmqW8O_clip)"><rect x="-100" y="-100" width="255.46" height="273.35" fill="transparent" stroke="none"/><path d="M1.316499932867714,1.7409334633164661L56.7843152817386,75.09131766543277" fill="none" stroke="#1d1d1d" stroke-width="3.5" stroke-dasharray="none" stroke-dashoffset="none"/></g></g></g></svg>