<svg xmlns="http://www.w3.org/2000/svg" direction="ltr" width="637.92" height="457.30" viewBox="1025.25 506.95 637.92 457.30" stroke-linecap="round" stroke-linejoin="round" style="background-color: transparent;"><defs><!--def: tldraw:font:pattern--><mask id="hash_pattern_mask">
							<rect x="0" y="0" width="8" height="8" fill="white"/>
							<g strokelinecap="round" stroke="black">
								<line x1="0.66" y1="2" x2="2" y2="0.66"/>
								<line x1="3.33" y1="4.66" x2="4.66" y2="3.33"/>
								<line x1="6" y1="7.33" x2="7.33" y2="6"/>
							</g>
						</mask><pattern id="hash_pattern" width="8" height="8" patternUnits="userSpaceOnUse">
							<rect x="0" y="0" width="8" height="8" fill="#fcfffe" mask="url(#hash_pattern_mask)"/>
						</pattern></defs><g transform="matrix(1, 0, 0, 1, 1242.25, 538.95)" opacity="1"><g><g><path d="M0,47.896484375a47.896484375,47.896484375,0,1,1,95.79296875,0a47.896484375,47.896484375,0,1,1,-95.79296875,0" fill="#65cb78"/><path d="M0,47.896484375a47.896484375,47.896484375,0,1,1,95.79296875,0a47.896484375,47.896484375,0,1,1,-95.79296875,0" fill="url(#hash_pattern)"/></g><path d="M0,47.896484375a47.896484375,47.896484375,0,1,1,95.79296875,0a47.896484375,47.896484375,0,1,1,-95.79296875,0" stroke-width="3.5" width="95.79" height="95.79" fill="none" stroke="#40c057"/></g></g><g transform="matrix(1, 0, 0, 1, 1257.77, 625.99)" opacity="1"><g><g mask="url(#shape_6yQ1zoNC9iIrvnfjKWEq3_clip)"><rect x="-100" y="-100" width="241.70" height="260.62" fill="transparent" stroke="none"/><path d="M4.61328125,-0.40234375L-37.09163214088585,60.21908600188067" fill="none" stroke="#1d1d1d" stroke-width="3.5" stroke-dasharray="none" stroke-dashoffset="none"/></g></g></g><g transform="matrix(1, 0, 0, 1, 1502.95, 611.39)" opacity="1"><g><defs><mask id="shape_aBids1QQcv7cvtb5Mm1b3_clip"><rect x="-251.91451971447904" y="-130.1227529830101" width="352.61" height="252.49" fill="white"/><path d="M -142.28068500734193 -24.24162633472443 L -151.91451971447904 -28.417656607071592 L -143.481054058085 -34.67278706313897 Z" fill="black" stroke="none"/></mask></defs><g mask="url(#shape_aBids1QQcv7cvtb5Mm1b3_clip)"><rect x="-100" y="-100" width="352.61" height="252.49" fill="transparent" stroke="none"/><path d="M0.703125,22.375 A179.3000641990691 179.30 0 0 0 -151.91451971447904,-28.417656607071592" fill="none" stroke="#4dabf7" stroke-width="3.5" stroke-dasharray="none" stroke-dashoffset="none"/></g><g><g><path d="M -142.28068500734193 -24.24162633472443 L -151.91451971447904 -28.417656607071592 L -143.481054058085 -34.67278706313897 Z" fill="#6fbbf8"/><path d="M -142.28068500734193 -24.24162633472443 L -151.91451971447904 -28.417656607071592 L -143.481054058085 -34.67278706313897 Z" fill="url(#hash_pattern)"/></g><path d="M -142.28068500734193 -24.24162633472443 L -151.91451971447904 -28.417656607071592 L -143.481054058085 -34.67278706313897 Z" fill="none" stroke="#4dabf7" stroke-width="3.5"/></g></g></g><g transform="matrix(1, 0, 0, 1, 1331.28, 681.29)" opacity="1"><path d="M0,47.896484375a47.896484375,47.896484375,0,1,1,95.79296875,0a47.896484375,47.896484375,0,1,1,-95.79296875,0" stroke-width="3.5" width="95.79" height="95.79" fill="none" stroke="#1d1d1d"/></g><g transform="matrix(1, 0, 0, 1, 1312.74, 627.61)" opacity="1"><g><g mask="url(#shape_IjOLS21mwaxx3oRxobpkg_clip)"><rect x="-100" y="-100" width="240.19" height="261.97" fill="transparent" stroke="none"/><path d="M2.977939642044703,-1.34845802430209L43.17467874846716,60.62344163360376" fill="none" stroke="#1d1d1d" stroke-width="3.5" stroke-dasharray="none" stroke-dashoffset="none"/></g></g></g><g transform="matrix(1, 0, 0, 1, 1151.07, 681.29)" opacity="1"><path d="M0,47.896484375a47.896484375,47.896484375,0,1,1,95.79296875,0a47.896484375,47.896484375,0,1,1,-95.79296875,0" stroke-width="3.5" width="95.79" height="95.79" fill="none" stroke="#1d1d1d"/></g><g transform="matrix(1, 0, 0, 1, 1177.54, 772.00)" opacity="1"><g><g mask="url(#shape_BOeyENgunDJY4O5RIg5Vp_clip)"><rect x="-100" y="-100" width="247.81" height="270.71" fill="transparent" stroke="none"/><path d="M-0.01776972826837664,-0.6487354232111784L-47.83143634266776,70.06856781041608" fill="none" stroke="#1d1d1d" stroke-width="3.5" stroke-dasharray="none" stroke-dashoffset="none"/></g></g></g><g transform="matrix(1, 0, 0, 1, 1057.25, 836.47)" opacity="1"><path d="M0,47.896484375a47.896484375,47.896484375,0,1,1,95.79296875,0a47.896484375,47.896484375,0,1,1,-95.79296875,0" stroke-width="3.5" width="95.79" height="95.79" fill="none" stroke="#1d1d1d"/></g><g transform="matrix(1, 0, 0, 1, 1240.83, 836.47)" opacity="1"><g><g><path d="M0,47.896484375a47.896484375,47.896484375,0,1,1,95.79296875,0a47.896484375,47.896484375,0,1,1,-95.79296875,0" fill="#65cb78"/><path d="M0,47.896484375a47.896484375,47.896484375,0,1,1,95.79296875,0a47.896484375,47.896484375,0,1,1,-95.79296875,0" fill="url(#hash_pattern)"/></g><path d="M0,47.896484375a47.896484375,47.896484375,0,1,1,95.79296875,0a47.896484375,47.896484375,0,1,1,-95.79296875,0" stroke-width="3.5" width="95.79" height="95.79" fill="none" stroke="#40c057"/></g></g><g transform="matrix(1, 0, 0, 1, 1220.75, 766.93)" opacity="1"><g><g mask="url(#shape_Inlw3W6pYVZP0KFn1_ZiE_clip)"><rect x="-100" y="-100" width="245.61" height="271.67" fill="transparent" stroke="none"/><path d="M1.875844091095587,2.947755000293L47.48970566631374,74.62668033277885" fill="none" stroke="#1d1d1d" stroke-width="3.5" stroke-dasharray="none" stroke-dashoffset="none"/></g></g></g><g transform="matrix(1, 0, 0, 1, 1433.40, 836.47)" opacity="1"><path d="M0,47.896484375a47.896484375,47.896484375,0,1,1,95.79296875,0a47.896484375,47.896484375,0,1,1,-95.79296875,0" stroke-width="3.5" width="95.79" height="95.79" fill="none" stroke="#1d1d1d"/></g><g transform="matrix(1, 0, 0, 1, 1399.12, 769.74)" opacity="1"><g><g mask="url(#shape_h_a8pf-3ewunHF_xWAa--_clip)"><rect x="-100" y="-100" width="255.46" height="273.35" fill="transparent" stroke="none"/><path d="M1.3164999328678277,1.7409334633164235L56.7843152817386,75.09131766543283" fill="none" stroke="#1d1d1d" stroke-width="3.5" stroke-dasharray="none" stroke-dashoffset="none"/></g></g></g><g transform="matrix(1, 0, 0, 1, 1503.70, 569.17)" opacity="1"><g><g><path d="M0, 0L127.48, 0,127.48, 127.48,0, 127.48Z" fill="#6fbbf8"/><path d="M0, 0L127.48, 0,127.48, 127.48,0, 127.48Z" fill="url(#hash_pattern)"/></g><path d="M0, 0L127.48, 0,127.48, 127.48,0, 127.48Z" stroke-width="3.5" stroke="#4dabf7" fill="none"/><g><text font-size="22px" font-family="sans-serif" font-style="normal" font-weight="normal" line-height="29.700000000000003px" dominant-baseline="mathematical" alignment-baseline="mathematical" stroke-width="2" fill="rgb(249, 250, 251)" stroke="rgb(249, 250, 251)"><tspan alignment-baseline="mathematical" x="40.421875px" y="46.40234375px">Data</tspan><tspan alignment-baseline="mathematical" x="87.5703125px" y="46.40234375px"> </tspan><tspan alignment-baseline="mathematical" x="16px" y="76.09765625px">
</tspan><tspan alignment-baseline="mathematical" x="36.9921875px" y="76.09765625px">Store</tspan></text><text font-size="22px" font-family="sans-serif" font-style="normal" font-weight="normal" line-height="29.700000000000003px" dominant-baseline="mathematical" alignment-baseline="mathematical" fill="#1d1d1d" stroke="none"><tspan alignment-baseline="mathematical" x="40.421875px" y="46.40234375px">Data</tspan><tspan alignment-baseline="mathematical" x="87.5703125px" y="46.40234375px"> </tspan><tspan alignment-baseline="mathematical" x="16px" y="76.09765625px">
</tspan><tspan alignment-baseline="mathematical" x="36.9921875px" y="76.09765625px">Store</tspan></text></g></g></g><g transform="matrix(1, 0, 0, 1, 1553.27, 694.13)" opacity="1"><g><defs><mask id="shape_n7qYj37u7NrItgj91gqI6_clip"><rect x="-308.6230059549896" y="-97.48046874999997" width="397.24" height="363.70" fill="white"/><path d="M -198.35138231090616 168.40 L -208.6230059549896 166.22 L -201.60097813637444 158.42 Z" fill="black" stroke="none"/></mask></defs><g mask="url(#shape_n7qYj37u7NrItgj91gqI6_clip)"><rect x="-100" y="-100" width="397.24" height="363.70" fill="transparent" stroke="none"/><path d="M-11.380003716286183,2.51953125 A334.00428087346614 334.00 0 0 1 -208.6230059549896,166.22766359194466" fill="none" stroke="#4dabf7" stroke-width="3.5" stroke-dasharray="none" stroke-dashoffset="none"/></g><g><g><path d="M -198.35138231090616 168.40 L -208.6230059549896 166.22 L -201.60097813637444 158.42 Z" fill="#6fbbf8"/><path d="M -198.35138231090616 168.40 L -208.6230059549896 166.22 L -201.60097813637444 158.42 Z" fill="url(#hash_pattern)"/></g><path d="M -198.35138231090616 168.40 L -208.6230059549896 166.22 L -201.60097813637444 158.42 Z" fill="none" stroke="#4dabf7" stroke-width="3.5"/></g></g></g></svg>