<svg xmlns="http://www.w3.org/2000/svg" direction="ltr" width="589.87" height="457.30" viewBox="2327.12 507.81 589.87 457.30" stroke-linecap="round" stroke-linejoin="round" style="background-color: transparent;"><defs><!--def: tldraw:font:pattern--><mask id="hash_pattern_mask">
							<rect x="0" y="0" width="8" height="8" fill="white"/>
							<g strokelinecap="round" stroke="black">
								<line x1="0.66" y1="2" x2="2" y2="0.66"/>
								<line x1="3.33" y1="4.66" x2="4.66" y2="3.33"/>
								<line x1="6" y1="7.33" x2="7.33" y2="6"/>
							</g>
						</mask><pattern id="hash_pattern" width="8" height="8" patternUnits="userSpaceOnUse">
							<rect x="0" y="0" width="8" height="8" fill="#fcfffe" mask="url(#hash_pattern_mask)"/>
						</pattern></defs><g transform="matrix(1, 0, 0, 1, 2544.12, 539.81)" opacity="1"><g><g><path d="M0,47.896484375a47.896484375,47.896484375,0,1,1,95.79296875,0a47.896484375,47.896484375,0,1,1,-95.79296875,0" fill="#65cb78"/><path d="M0,47.896484375a47.896484375,47.896484375,0,1,1,95.79296875,0a47.896484375,47.896484375,0,1,1,-95.79296875,0" fill="url(#hash_pattern)"/></g><path d="M0,47.896484375a47.896484375,47.896484375,0,1,1,95.79296875,0a47.896484375,47.896484375,0,1,1,-95.79296875,0" stroke-width="3.5" width="95.79" height="95.79" fill="none" stroke="#40c057"/></g></g><g transform="matrix(1, 0, 0, 1, 2614.60, 628.47)" opacity="1"><g><defs><mask id="shape_qOqmNPSCI7RUw85HQhXwi_clip"><rect x="-97.67888966637656" y="-96.49668433569036" width="237.63" height="254.11" fill="white"/><path d="M 3.20 13.96 L 2.32 3.50 L 11.82 7.97" fill="none" stroke="none"/></mask></defs><g mask="url(#shape_qOqmNPSCI7RUw85HQhXwi_clip)"><rect x="-100" y="-100" width="237.63" height="254.11" fill="transparent" stroke="none"/><path d="M2.3211103336234373,3.503315664309639L39.961101061581076,57.621673882481105" fill="none" stroke="#1d1d1d" stroke-width="3.5" stroke-dasharray="none" stroke-dashoffset="none"/></g><path d="M 3.20 13.96 L 2.32 3.50 L 11.82 7.97" fill="none" stroke="#1d1d1d" stroke-width="3.5"/></g></g><g transform="matrix(1, 0, 0, 1, 2559.63, 626.85)" opacity="1"><g><g mask="url(#shape_7d4cmMbIHLDnj9rQorhSG_clip)"><rect x="-100" y="-100" width="241.70" height="260.62" fill="transparent" stroke="none"/><path d="M4.61328125,-0.40234375L-37.09163214088585,60.21908600188067" fill="none" stroke="#1d1d1d" stroke-width="3.5" stroke-dasharray="none" stroke-dashoffset="none"/></g></g></g><g transform="matrix(1, 0, 0, 1, 2633.15, 682.15)" opacity="1"><g><g><path d="M0,47.896484375a47.896484375,47.896484375,0,1,1,95.79296875,0a47.896484375,47.896484375,0,1,1,-95.79296875,0" fill="#65cb78"/><path d="M0,47.896484375a47.896484375,47.896484375,0,1,1,95.79296875,0a47.896484375,47.896484375,0,1,1,-95.79296875,0" fill="url(#hash_pattern)"/></g><path d="M0,47.896484375a47.896484375,47.896484375,0,1,1,95.79296875,0a47.896484375,47.896484375,0,1,1,-95.79296875,0" stroke-width="3.5" width="95.79" height="95.79" fill="none" stroke="#40c057"/></g></g><g transform="matrix(1, 0, 0, 1, 2700.99, 770.59)" opacity="1"><g><defs><mask id="shape_IhzPSrOQlk8JwEraftNd7_clip"><rect x="-93.52224847591606" y="-94.12909665791085" width="248.43" height="267.22" fill="white"/><path d="M 7.53 16.31 L 6.47 5.87 L 16.05 10.17" fill="none" stroke="none"/></mask></defs><g mask="url(#shape_IhzPSrOQlk8JwEraftNd7_clip)"><rect x="-100" y="-100" width="248.43" height="267.22" fill="transparent" stroke="none"/><path d="M6.477751524083942,5.87090334208915L54.915514999353036,73.09747327623825" fill="none" stroke="#1d1d1d" stroke-width="3.5" stroke-dasharray="none" stroke-dashoffset="none"/></g><path d="M 7.53 16.31 L 6.47 5.87 L 16.05 10.17" fill="none" stroke="#1d1d1d" stroke-width="3.5"/></g></g><g transform="matrix(1, 0, 0, 1, 2452.94, 682.15)" opacity="1"><path d="M0,47.896484375a47.896484375,47.896484375,0,1,1,95.79296875,0a47.896484375,47.896484375,0,1,1,-95.79296875,0" stroke-width="3.5" width="95.79" height="95.79" fill="none" stroke="#1d1d1d"/></g><g transform="matrix(1, 0, 0, 1, 2479.40, 772.86)" opacity="1"><g><g mask="url(#shape_Cg1tzurcGG2OlNm0o5M7d_clip)"><rect x="-100" y="-100" width="247.81" height="270.71" fill="transparent" stroke="none"/><path d="M-0.01776972826837664,-0.6487354232111784L-47.83143634266776,70.06856781041608" fill="none" stroke="#1d1d1d" stroke-width="3.5" stroke-dasharray="none" stroke-dashoffset="none"/></g></g></g><g transform="matrix(1, 0, 0, 1, 2359.12, 837.32)" opacity="1"><path d="M0,47.896484375a47.896484375,47.896484375,0,1,1,95.79296875,0a47.896484375,47.896484375,0,1,1,-95.79296875,0" stroke-width="3.5" width="95.79" height="95.79" fill="none" stroke="#1d1d1d"/></g><g transform="matrix(1, 0, 0, 1, 2542.70, 837.32)" opacity="1"><g><path d="M0,47.896484375a47.896484375,47.896484375,0,1,1,95.79296875,0a47.896484375,47.896484375,0,1,1,-95.79296875,0" fill="#fcfffe"/><path d="M0,47.896484375a47.896484375,47.896484375,0,1,1,95.79296875,0a47.896484375,47.896484375,0,1,1,-95.79296875,0" stroke-width="3.5" width="95.79" height="95.79" fill="none" stroke="#1d1d1d"/></g></g><g transform="matrix(1, 0, 0, 1, 2522.61, 767.79)" opacity="1"><g><g mask="url(#shape_rUMlkNgWlvZHcigPR6sjX_clip)"><rect x="-100" y="-100" width="245.61" height="271.67" fill="transparent" stroke="none"/><path d="M1.875844091095587,2.947755000293114L47.48970566631397,74.62668033277885" fill="none" stroke="#1d1d1d" stroke-width="3.5" stroke-dasharray="none" stroke-dashoffset="none"/></g></g></g><g transform="matrix(1, 0, 0, 1, 2735.26, 837.32)" opacity="1"><g><g><path d="M0,47.896484375a47.896484375,47.896484375,0,1,1,95.79296875,0a47.896484375,47.896484375,0,1,1,-95.79296875,0" fill="#65cb78"/><path d="M0,47.896484375a47.896484375,47.896484375,0,1,1,95.79296875,0a47.896484375,47.896484375,0,1,1,-95.79296875,0" fill="url(#hash_pattern)"/></g><path d="M0,47.896484375a47.896484375,47.896484375,0,1,1,95.79296875,0a47.896484375,47.896484375,0,1,1,-95.79296875,0" stroke-width="3.5" width="95.79" height="95.79" fill="none" stroke="#40c057"/></g></g><g transform="matrix(1, 0, 0, 1, 2650.88, 620.71)" opacity="1"><g><text font-size="24px" font-family="'tldraw_mono', monospace" font-style="normal" font-weight="normal" line-height="32.400000000000006px" dominant-baseline="mathematical" alignment-baseline="mathematical" stroke="rgb(249, 250, 251)" stroke-width="2px" fill="rgb(249, 250, 251)"><tspan alignment-baseline="mathematical" x="0.5px" y="13.5px">updateName</tspan></text><text font-size="24px" font-family="'tldraw_mono', monospace" font-style="normal" font-weight="normal" line-height="32.400000000000006px" dominant-baseline="mathematical" alignment-baseline="mathematical" stroke="none" stroke-width="2px" fill="#1d1d1d"><tspan alignment-baseline="mathematical" x="0.5px" y="13.5px">updateName</tspan></text></g></g><g transform="matrix(1, 0, 0, 1, 2740.00, 767.73)" opacity="1"><g><text font-size="24px" font-family="'tldraw_mono', monospace" font-style="normal" font-weight="normal" line-height="32.400000000000006px" dominant-baseline="mathematical" alignment-baseline="mathematical" stroke="rgb(249, 250, 251)" stroke-width="2px" fill="rgb(249, 250, 251)"><tspan alignment-baseline="mathematical" x="0.5px" y="13.5px">updateName</tspan></text><text font-size="24px" font-family="'tldraw_mono', monospace" font-style="normal" font-weight="normal" line-height="32.400000000000006px" dominant-baseline="mathematical" alignment-baseline="mathematical" stroke="none" stroke-width="2px" fill="#1d1d1d"><tspan alignment-baseline="mathematical" x="0.5px" y="13.5px">updateName</tspan></text></g></g></svg>