<svg xmlns="http://www.w3.org/2000/svg" direction="ltr" width="535.93" height="457.30" viewBox="1715.35 508.06 535.93 457.30" stroke-linecap="round" stroke-linejoin="round" style="background-color: transparent;"><defs><!--def: tldraw:font:pattern--><mask id="hash_pattern_mask">
							<rect x="0" y="0" width="8" height="8" fill="white"/>
							<g strokelinecap="round" stroke="black">
								<line x1="0.66" y1="2" x2="2" y2="0.66"/>
								<line x1="3.33" y1="4.66" x2="4.66" y2="3.33"/>
								<line x1="6" y1="7.33" x2="7.33" y2="6"/>
							</g>
						</mask><pattern id="hash_pattern" width="8" height="8" patternUnits="userSpaceOnUse">
							<rect x="0" y="0" width="8" height="8" fill="#fcfffe" mask="url(#hash_pattern_mask)"/>
						</pattern></defs><g transform="matrix(1, 0, 0, 1, 1932.35, 540.06)" opacity="1"><g><g><path d="M0,47.896484375a47.896484375,47.896484375,0,1,1,95.79296875,0a47.896484375,47.896484375,0,1,1,-95.79296875,0" fill="#65cb78"/><path d="M0,47.896484375a47.896484375,47.896484375,0,1,1,95.79296875,0a47.896484375,47.896484375,0,1,1,-95.79296875,0" fill="url(#hash_pattern)"/></g><path d="M0,47.896484375a47.896484375,47.896484375,0,1,1,95.79296875,0a47.896484375,47.896484375,0,1,1,-95.79296875,0" stroke-width="3.5" width="95.79" height="95.79" fill="none" stroke="#40c057"/></g></g><g transform="matrix(1, 0, 0, 1, 2002.84, 628.72)" opacity="1"><g><defs><mask id="shape_N3YMfX5RcpM8f3n-R4h_D_clip"><rect x="-97.37818416668347" y="-101.11050370285545" width="237.33" height="258.73" fill="white"/><path d="M 39.51 47.13 L 39.96 57.62 L 30.65 52.76" fill="none" stroke="none"/></mask></defs><g mask="url(#shape_N3YMfX5RcpM8f3n-R4h_D_clip)"><rect x="-100" y="-100" width="237.33" height="258.73" fill="transparent" stroke="none"/><path d="M2.621815833316532,-1.1105037028554534L39.961101061581076,57.621673882481105" fill="none" stroke="#1d1d1d" stroke-width="3.5" stroke-dasharray="none" stroke-dashoffset="none"/></g><path d="M 39.51 47.13 L 39.96 57.62 L 30.65 52.76" fill="none" stroke="#1d1d1d" stroke-width="3.5"/></g></g><g transform="matrix(1, 0, 0, 1, 1947.87, 627.10)" opacity="1"><g><g mask="url(#shape_jIfhSkWfrmyG9HLnjyWmL_clip)"><rect x="-100" y="-100" width="241.70" height="260.62" fill="transparent" stroke="none"/><path d="M4.61328125,-0.40234375L-37.09163214088585,60.21908600188067" fill="none" stroke="#1d1d1d" stroke-width="3.5" stroke-dasharray="none" stroke-dashoffset="none"/></g></g></g><g transform="matrix(1, 0, 0, 1, 2021.38, 682.40)" opacity="1"><g><g><path d="M0,47.896484375a47.896484375,47.896484375,0,1,1,95.79296875,0a47.896484375,47.896484375,0,1,1,-95.79296875,0" fill="#65cb78"/><path d="M0,47.896484375a47.896484375,47.896484375,0,1,1,95.79296875,0a47.896484375,47.896484375,0,1,1,-95.79296875,0" fill="url(#hash_pattern)"/></g><path d="M0,47.896484375a47.896484375,47.896484375,0,1,1,95.79296875,0a47.896484375,47.896484375,0,1,1,-95.79296875,0" stroke-width="3.5" width="95.79" height="95.79" fill="none" stroke="#40c057"/></g></g><g transform="matrix(1, 0, 0, 1, 2089.22, 770.85)" opacity="1"><g><defs><mask id="shape_3jE6iqCexHNHtJ8yMbNiR_clip"><rect x="-98.68922514311862" y="-98.2552411632089" width="253.60" height="271.35" fill="white"/><path d="M 53.65 62.67 L 54.91 73.09 L 45.25 68.98" fill="none" stroke="none"/></mask></defs><g mask="url(#shape_3jE6iqCexHNHtJ8yMbNiR_clip)"><rect x="-100" y="-100" width="253.60" height="271.35" fill="transparent" stroke="none"/><path d="M1.3107748568813804,1.7447588367911067L54.915514999353036,73.09747327623825" fill="none" stroke="#1d1d1d" stroke-width="3.5" stroke-dasharray="none" stroke-dashoffset="none"/></g><path d="M 53.65 62.67 L 54.91 73.09 L 45.25 68.98" fill="none" stroke="#1d1d1d" stroke-width="3.5"/></g></g><g transform="matrix(1, 0, 0, 1, 1841.17, 682.40)" opacity="1"><path d="M0,47.896484375a47.896484375,47.896484375,0,1,1,95.79296875,0a47.896484375,47.896484375,0,1,1,-95.79296875,0" stroke-width="3.5" width="95.79" height="95.79" fill="none" stroke="#1d1d1d"/></g><g transform="matrix(1, 0, 0, 1, 1867.64, 773.11)" opacity="1"><g><g mask="url(#shape_YfI0EmG_CuZzVgkKv7yIS_clip)"><rect x="-100" y="-100" width="247.81" height="270.71" fill="transparent" stroke="none"/><path d="M-0.01776972826837664,-0.6487354232111784L-47.83143634266776,70.06856781041608" fill="none" stroke="#1d1d1d" stroke-width="3.5" stroke-dasharray="none" stroke-dashoffset="none"/></g></g></g><g transform="matrix(1, 0, 0, 1, 1747.35, 837.58)" opacity="1"><path d="M0,47.896484375a47.896484375,47.896484375,0,1,1,95.79296875,0a47.896484375,47.896484375,0,1,1,-95.79296875,0" stroke-width="3.5" width="95.79" height="95.79" fill="none" stroke="#1d1d1d"/></g><g transform="matrix(1, 0, 0, 1, 1930.93, 837.58)" opacity="1"><g><path d="M0,47.896484375a47.896484375,47.896484375,0,1,1,95.79296875,0a47.896484375,47.896484375,0,1,1,-95.79296875,0" fill="#fcfffe"/><path d="M0,47.896484375a47.896484375,47.896484375,0,1,1,95.79296875,0a47.896484375,47.896484375,0,1,1,-95.79296875,0" stroke-width="3.5" width="95.79" height="95.79" fill="none" stroke="#1d1d1d"/></g></g><g transform="matrix(1, 0, 0, 1, 1910.85, 768.04)" opacity="1"><g><g mask="url(#shape_YYmu0U6tGc_JLc-z8Alfn_clip)"><rect x="-100" y="-100" width="245.61" height="271.67" fill="transparent" stroke="none"/><path d="M1.875844091095587,2.947755000293114L47.48970566631374,74.62668033277885" fill="none" stroke="#1d1d1d" stroke-width="3.5" stroke-dasharray="none" stroke-dashoffset="none"/></g></g></g><g transform="matrix(1, 0, 0, 1, 2123.50, 837.58)" opacity="1"><g><g><path d="M0,47.896484375a47.896484375,47.896484375,0,1,1,95.79296875,0a47.896484375,47.896484375,0,1,1,-95.79296875,0" fill="#65cb78"/><path d="M0,47.896484375a47.896484375,47.896484375,0,1,1,95.79296875,0a47.896484375,47.896484375,0,1,1,-95.79296875,0" fill="url(#hash_pattern)"/></g><path d="M0,47.896484375a47.896484375,47.896484375,0,1,1,95.79296875,0a47.896484375,47.896484375,0,1,1,-95.79296875,0" stroke-width="3.5" width="95.79" height="95.79" fill="none" stroke="#40c057"/></g></g><g transform="matrix(1, 0, 0, 1, 2038.64, 621.81)" opacity="1"><g><text font-size="24px" font-family="'tldraw_mono', monospace" font-style="normal" font-weight="normal" line-height="32.400000000000006px" dominant-baseline="mathematical" alignment-baseline="mathematical" stroke="rgb(249, 250, 251)" stroke-width="2px" fill="rgb(249, 250, 251)"><tspan alignment-baseline="mathematical" x="0.6953125px" y="13.5px">name</tspan></text><text font-size="24px" font-family="'tldraw_mono', monospace" font-style="normal" font-weight="normal" line-height="32.400000000000006px" dominant-baseline="mathematical" alignment-baseline="mathematical" stroke="none" stroke-width="2px" fill="#1d1d1d"><tspan alignment-baseline="mathematical" x="0.6953125px" y="13.5px">name</tspan></text></g></g><g transform="matrix(1, 0, 0, 1, 2128.60, 768.33)" opacity="1"><g><text font-size="24px" font-family="'tldraw_mono', monospace" font-style="normal" font-weight="normal" line-height="32.400000000000006px" dominant-baseline="mathematical" alignment-baseline="mathematical" stroke="rgb(249, 250, 251)" stroke-width="2px" fill="rgb(249, 250, 251)"><tspan alignment-baseline="mathematical" x="0.6953125px" y="13.5px">name</tspan></text><text font-size="24px" font-family="'tldraw_mono', monospace" font-style="normal" font-weight="normal" line-height="32.400000000000006px" dominant-baseline="mathematical" alignment-baseline="mathematical" stroke="none" stroke-width="2px" fill="#1d1d1d"><tspan alignment-baseline="mathematical" x="0.6953125px" y="13.5px">name</tspan></text></g></g></svg>